<?xml version="1.0" encoding="UTF-8" standalone="no"?>
<!-- Created with Inkscape (http://www.inkscape.org/) -->

<svg
   width="162.36479mm"
   height="162.36479mm"
   viewBox="0 0 162.36479 162.36479"
   version="1.1"
   id="svg5"
   xml:space="preserve"
   inkscape:version="1.2.2 (b0a84865, 2022-12-01)"
   sodipodi:docname="rankicon.svg"
   xmlns:inkscape="http://www.inkscape.org/namespaces/inkscape"
   xmlns:sodipodi="http://sodipodi.sourceforge.net/DTD/sodipodi-0.dtd"
   xmlns="http://www.w3.org/2000/svg"
   xmlns:svg="http://www.w3.org/2000/svg"><sodipodi:namedview
     id="namedview7"
     pagecolor="#ffffff"
     bordercolor="#000000"
     borderopacity="0.25"
     inkscape:showpageshadow="2"
     inkscape:pageopacity="0.0"
     inkscape:pagecheckerboard="0"
     inkscape:deskcolor="#d1d1d1"
     inkscape:document-units="mm"
     showgrid="false"
     inkscape:zoom="1.2677775"
     inkscape:cx="238.60654"
     inkscape:cy="442.50668"
     inkscape:window-width="1512"
     inkscape:window-height="916"
     inkscape:window-x="0"
     inkscape:window-y="38"
     inkscape:window-maximized="1"
     inkscape:current-layer="g615" /><defs
     id="defs2" /><g
     inkscape:label="Layer 1"
     inkscape:groupmode="layer"
     id="layer1"
     transform="translate(-15.787095,-53.732105)"><g
       id="g615"
       transform="translate(0.07119538,-2.210456)"><path
         id="path231"
         style="opacity:1;fill:#000000;stroke-width:0.283052"
         d="m -97.008612,88.843395 c 40.846316,0 73.958683,15.592785 73.958276,34.827335 -0.0095,4.6177 -1.969005,9.18841 -5.764506,13.4462 l -22.229134,35.73271 c -9.687009,12.11027 -31.970118,13.11142 -45.939831,13.28084 -23.041063,-0.003 -42.598083,-5.57806 -45.964633,-13.10308 l -22.58726,-36.30837 c -3.57314,-4.14482 -5.41714,-8.57498 -5.43119,-13.0483 -4.1e-4,-19.23455 33.11196,-34.827336 73.958278,-34.827335 z m -0.715202,7.287411 c -28.879246,4.3e-5 -52.290536,9.401434 -52.290866,20.998714 -3.9e-4,11.59748 23.41111,20.9992 52.290866,20.99924 28.879758,-4e-5 52.29126,-9.40176 52.290865,-20.99924 -3.29e-4,-11.59728 -23.411618,-20.998671 -52.290865,-20.998714 z"
         transform="scale(-1,1)"
         sodipodi:nodetypes="scccccccsccccc" /></g></g></svg>
